<mxfile host="app.diagrams.net" modified="2021-05-28T09:54:30.581Z" agent="5.0 (Windows NT 10.0; Win64; x64) AppleWebKit/537.36 (KHTML, like Gecko) Chrome/91.0.4472.77 Safari/537.36" etag="iDzm3hHv1hxf824t60AF" version="14.7.2" type="github" pages="2">
  <diagram id="C5RBs43oDa-KdzZeNtuy" name="Page-1">
    <mxGraphModel dx="1102" dy="614" grid="1" gridSize="10" guides="1" tooltips="1" connect="1" arrows="1" fold="1" page="1" pageScale="1" pageWidth="827" pageHeight="1169" math="0" shadow="0">
      <root>
        <mxCell id="WIyWlLk6GJQsqaUBKTNV-0" />
        <mxCell id="WIyWlLk6GJQsqaUBKTNV-1" parent="WIyWlLk6GJQsqaUBKTNV-0" />
        <mxCell id="WIyWlLk6GJQsqaUBKTNV-2" value="" style="rounded=0;html=1;jettySize=auto;orthogonalLoop=1;fontSize=11;endArrow=block;endFill=0;endSize=8;strokeWidth=1;shadow=0;labelBackgroundColor=none;edgeStyle=orthogonalEdgeStyle;" parent="WIyWlLk6GJQsqaUBKTNV-1" source="WIyWlLk6GJQsqaUBKTNV-3" target="WIyWlLk6GJQsqaUBKTNV-6" edge="1">
          <mxGeometry relative="1" as="geometry" />
        </mxCell>
        <mxCell id="WIyWlLk6GJQsqaUBKTNV-3" value="Lamp doesn&#39;t work" style="rounded=1;whiteSpace=wrap;html=1;fontSize=12;glass=0;strokeWidth=1;shadow=0;" parent="WIyWlLk6GJQsqaUBKTNV-1" vertex="1">
          <mxGeometry x="160" y="80" width="120" height="40" as="geometry" />
        </mxCell>
        <mxCell id="WIyWlLk6GJQsqaUBKTNV-4" value="Yes" style="rounded=0;html=1;jettySize=auto;orthogonalLoop=1;fontSize=11;endArrow=block;endFill=0;endSize=8;strokeWidth=1;shadow=0;labelBackgroundColor=none;edgeStyle=orthogonalEdgeStyle;" parent="WIyWlLk6GJQsqaUBKTNV-1" source="WIyWlLk6GJQsqaUBKTNV-6" target="WIyWlLk6GJQsqaUBKTNV-10" edge="1">
          <mxGeometry y="20" relative="1" as="geometry">
            <mxPoint as="offset" />
          </mxGeometry>
        </mxCell>
        <mxCell id="WIyWlLk6GJQsqaUBKTNV-5" value="No" style="edgeStyle=orthogonalEdgeStyle;rounded=0;html=1;jettySize=auto;orthogonalLoop=1;fontSize=11;endArrow=block;endFill=0;endSize=8;strokeWidth=1;shadow=0;labelBackgroundColor=none;" parent="WIyWlLk6GJQsqaUBKTNV-1" source="WIyWlLk6GJQsqaUBKTNV-6" target="WIyWlLk6GJQsqaUBKTNV-7" edge="1">
          <mxGeometry y="10" relative="1" as="geometry">
            <mxPoint as="offset" />
          </mxGeometry>
        </mxCell>
        <mxCell id="WIyWlLk6GJQsqaUBKTNV-6" value="Lamp&lt;br&gt;plugged in?" style="rhombus;whiteSpace=wrap;html=1;shadow=0;fontFamily=Helvetica;fontSize=12;align=center;strokeWidth=1;spacing=6;spacingTop=-4;" parent="WIyWlLk6GJQsqaUBKTNV-1" vertex="1">
          <mxGeometry x="170" y="170" width="100" height="80" as="geometry" />
        </mxCell>
        <mxCell id="WIyWlLk6GJQsqaUBKTNV-7" value="Plug in lamp" style="rounded=1;whiteSpace=wrap;html=1;fontSize=12;glass=0;strokeWidth=1;shadow=0;" parent="WIyWlLk6GJQsqaUBKTNV-1" vertex="1">
          <mxGeometry x="320" y="190" width="120" height="40" as="geometry" />
        </mxCell>
        <mxCell id="WIyWlLk6GJQsqaUBKTNV-8" value="No" style="rounded=0;html=1;jettySize=auto;orthogonalLoop=1;fontSize=11;endArrow=block;endFill=0;endSize=8;strokeWidth=1;shadow=0;labelBackgroundColor=none;edgeStyle=orthogonalEdgeStyle;" parent="WIyWlLk6GJQsqaUBKTNV-1" source="WIyWlLk6GJQsqaUBKTNV-10" target="WIyWlLk6GJQsqaUBKTNV-11" edge="1">
          <mxGeometry x="0.3333" y="20" relative="1" as="geometry">
            <mxPoint as="offset" />
          </mxGeometry>
        </mxCell>
        <mxCell id="WIyWlLk6GJQsqaUBKTNV-9" value="Yes" style="edgeStyle=orthogonalEdgeStyle;rounded=0;html=1;jettySize=auto;orthogonalLoop=1;fontSize=11;endArrow=block;endFill=0;endSize=8;strokeWidth=1;shadow=0;labelBackgroundColor=none;" parent="WIyWlLk6GJQsqaUBKTNV-1" source="WIyWlLk6GJQsqaUBKTNV-10" target="WIyWlLk6GJQsqaUBKTNV-12" edge="1">
          <mxGeometry y="10" relative="1" as="geometry">
            <mxPoint as="offset" />
          </mxGeometry>
        </mxCell>
        <mxCell id="WIyWlLk6GJQsqaUBKTNV-10" value="Bulb&lt;br&gt;burned out?" style="rhombus;whiteSpace=wrap;html=1;shadow=0;fontFamily=Helvetica;fontSize=12;align=center;strokeWidth=1;spacing=6;spacingTop=-4;" parent="WIyWlLk6GJQsqaUBKTNV-1" vertex="1">
          <mxGeometry x="170" y="290" width="100" height="80" as="geometry" />
        </mxCell>
        <mxCell id="WIyWlLk6GJQsqaUBKTNV-11" value="Repair Lamp" style="rounded=1;whiteSpace=wrap;html=1;fontSize=12;glass=0;strokeWidth=1;shadow=0;" parent="WIyWlLk6GJQsqaUBKTNV-1" vertex="1">
          <mxGeometry x="160" y="430" width="120" height="40" as="geometry" />
        </mxCell>
        <mxCell id="WIyWlLk6GJQsqaUBKTNV-12" value="Replace Bulb" style="rounded=1;whiteSpace=wrap;html=1;fontSize=12;glass=0;strokeWidth=1;shadow=0;" parent="WIyWlLk6GJQsqaUBKTNV-1" vertex="1">
          <mxGeometry x="320" y="310" width="120" height="40" as="geometry" />
        </mxCell>
      </root>
    </mxGraphModel>
  </diagram>
  <diagram id="PVBSwua8CuCwUBfoVyoG" name="Page-2">
    <mxGraphModel dx="1952" dy="614" grid="1" gridSize="10" guides="1" tooltips="1" connect="1" arrows="1" fold="1" page="1" pageScale="1" pageWidth="850" pageHeight="1100" math="0" shadow="0">
      <root>
        <mxCell id="B3cgf-nSYvkNTnSfMjAs-0" />
        <mxCell id="B3cgf-nSYvkNTnSfMjAs-1" parent="B3cgf-nSYvkNTnSfMjAs-0" />
        <mxCell id="B3cgf-nSYvkNTnSfMjAs-3" value="START" style="strokeWidth=2;html=1;shape=mxgraph.flowchart.start_1;whiteSpace=wrap;" vertex="1" parent="B3cgf-nSYvkNTnSfMjAs-1">
          <mxGeometry x="390" y="140" width="100" height="60" as="geometry" />
        </mxCell>
        <mxCell id="B3cgf-nSYvkNTnSfMjAs-4" value="" style="endArrow=classic;html=1;" edge="1" parent="B3cgf-nSYvkNTnSfMjAs-1">
          <mxGeometry width="50" height="50" relative="1" as="geometry">
            <mxPoint x="440" y="200" as="sourcePoint" />
            <mxPoint x="440" y="240" as="targetPoint" />
          </mxGeometry>
        </mxCell>
        <mxCell id="B3cgf-nSYvkNTnSfMjAs-5" value="Type in website" style="rounded=1;whiteSpace=wrap;html=1;absoluteArcSize=1;arcSize=14;strokeWidth=2;" vertex="1" parent="B3cgf-nSYvkNTnSfMjAs-1">
          <mxGeometry x="360" y="240" width="160" height="100" as="geometry" />
        </mxCell>
        <mxCell id="B3cgf-nSYvkNTnSfMjAs-6" value="" style="endArrow=classic;html=1;" edge="1" parent="B3cgf-nSYvkNTnSfMjAs-1">
          <mxGeometry width="50" height="50" relative="1" as="geometry">
            <mxPoint x="440" y="340" as="sourcePoint" />
            <mxPoint x="440" y="400" as="targetPoint" />
          </mxGeometry>
        </mxCell>
        <mxCell id="B3cgf-nSYvkNTnSfMjAs-7" value="Have an account" style="strokeWidth=2;html=1;shape=mxgraph.flowchart.decision;whiteSpace=wrap;" vertex="1" parent="B3cgf-nSYvkNTnSfMjAs-1">
          <mxGeometry x="360" y="390" width="160" height="100" as="geometry" />
        </mxCell>
        <mxCell id="B3cgf-nSYvkNTnSfMjAs-10" value="No" style="text;html=1;align=center;verticalAlign=middle;resizable=0;points=[];autosize=1;strokeColor=none;" vertex="1" parent="B3cgf-nSYvkNTnSfMjAs-1">
          <mxGeometry x="250" y="430" width="30" height="20" as="geometry" />
        </mxCell>
        <mxCell id="B3cgf-nSYvkNTnSfMjAs-11" value="Yes" style="text;html=1;align=center;verticalAlign=middle;resizable=0;points=[];autosize=1;strokeColor=none;" vertex="1" parent="B3cgf-nSYvkNTnSfMjAs-1">
          <mxGeometry x="420" y="540" width="40" height="20" as="geometry" />
        </mxCell>
        <mxCell id="B3cgf-nSYvkNTnSfMjAs-12" value="" style="endArrow=classic;html=1;" edge="1" parent="B3cgf-nSYvkNTnSfMjAs-1" source="B3cgf-nSYvkNTnSfMjAs-10">
          <mxGeometry width="50" height="50" relative="1" as="geometry">
            <mxPoint x="640" y="450" as="sourcePoint" />
            <mxPoint x="160" y="441" as="targetPoint" />
          </mxGeometry>
        </mxCell>
        <mxCell id="B3cgf-nSYvkNTnSfMjAs-14" value="Sign up" style="rounded=1;whiteSpace=wrap;html=1;absoluteArcSize=1;arcSize=14;strokeWidth=2;" vertex="1" parent="B3cgf-nSYvkNTnSfMjAs-1">
          <mxGeometry y="400" width="160" height="100" as="geometry" />
        </mxCell>
        <mxCell id="B3cgf-nSYvkNTnSfMjAs-17" value="" style="endArrow=classic;html=1;" edge="1" parent="B3cgf-nSYvkNTnSfMjAs-1">
          <mxGeometry width="50" height="50" relative="1" as="geometry">
            <mxPoint y="439.5" as="sourcePoint" />
            <mxPoint x="-80" y="442" as="targetPoint" />
          </mxGeometry>
        </mxCell>
        <mxCell id="B3cgf-nSYvkNTnSfMjAs-18" value="Fill in information needed" style="rounded=1;whiteSpace=wrap;html=1;absoluteArcSize=1;arcSize=14;strokeWidth=2;" vertex="1" parent="B3cgf-nSYvkNTnSfMjAs-1">
          <mxGeometry x="-240" y="400" width="160" height="100" as="geometry" />
        </mxCell>
        <mxCell id="B3cgf-nSYvkNTnSfMjAs-19" value="" style="endArrow=classic;html=1;entryX=0.5;entryY=0;entryDx=0;entryDy=0;" edge="1" parent="B3cgf-nSYvkNTnSfMjAs-1" target="B3cgf-nSYvkNTnSfMjAs-20">
          <mxGeometry width="50" height="50" relative="1" as="geometry">
            <mxPoint x="-160.5" y="500" as="sourcePoint" />
            <mxPoint x="-160.5" y="560" as="targetPoint" />
          </mxGeometry>
        </mxCell>
        <mxCell id="B3cgf-nSYvkNTnSfMjAs-20" value="Submit information" style="rounded=1;whiteSpace=wrap;html=1;absoluteArcSize=1;arcSize=14;strokeWidth=2;" vertex="1" parent="B3cgf-nSYvkNTnSfMjAs-1">
          <mxGeometry x="-240" y="600" width="160" height="100" as="geometry" />
        </mxCell>
        <mxCell id="B3cgf-nSYvkNTnSfMjAs-22" value="" style="endArrow=classic;html=1;" edge="1" parent="B3cgf-nSYvkNTnSfMjAs-1">
          <mxGeometry width="50" height="50" relative="1" as="geometry">
            <mxPoint x="440" y="560" as="sourcePoint" />
            <mxPoint x="440" y="600" as="targetPoint" />
          </mxGeometry>
        </mxCell>
        <mxCell id="B3cgf-nSYvkNTnSfMjAs-23" value="Sign in" style="rounded=1;whiteSpace=wrap;html=1;absoluteArcSize=1;arcSize=14;strokeWidth=2;" vertex="1" parent="B3cgf-nSYvkNTnSfMjAs-1">
          <mxGeometry x="360" y="600" width="160" height="100" as="geometry" />
        </mxCell>
        <mxCell id="B3cgf-nSYvkNTnSfMjAs-24" value="" style="endArrow=classic;html=1;entryX=0;entryY=0.6;entryDx=0;entryDy=0;entryPerimeter=0;" edge="1" parent="B3cgf-nSYvkNTnSfMjAs-1" target="B3cgf-nSYvkNTnSfMjAs-23">
          <mxGeometry width="50" height="50" relative="1" as="geometry">
            <mxPoint x="-80" y="660" as="sourcePoint" />
            <mxPoint x="-30" y="610" as="targetPoint" />
          </mxGeometry>
        </mxCell>
        <mxCell id="B3cgf-nSYvkNTnSfMjAs-25" value="" style="endArrow=classic;html=1;" edge="1" parent="B3cgf-nSYvkNTnSfMjAs-1">
          <mxGeometry width="50" height="50" relative="1" as="geometry">
            <mxPoint x="440" y="700" as="sourcePoint" />
            <mxPoint x="440" y="760" as="targetPoint" />
          </mxGeometry>
        </mxCell>
        <mxCell id="B3cgf-nSYvkNTnSfMjAs-26" value="Enter Username and Password" style="rounded=1;whiteSpace=wrap;html=1;absoluteArcSize=1;arcSize=14;strokeWidth=2;" vertex="1" parent="B3cgf-nSYvkNTnSfMjAs-1">
          <mxGeometry x="360" y="760" width="160" height="100" as="geometry" />
        </mxCell>
        <mxCell id="B3cgf-nSYvkNTnSfMjAs-27" value="" style="endArrow=classic;html=1;" edge="1" parent="B3cgf-nSYvkNTnSfMjAs-1">
          <mxGeometry width="50" height="50" relative="1" as="geometry">
            <mxPoint x="440" y="860" as="sourcePoint" />
            <mxPoint x="440" y="920" as="targetPoint" />
          </mxGeometry>
        </mxCell>
        <mxCell id="B3cgf-nSYvkNTnSfMjAs-28" value="Username and Password correct" style="strokeWidth=2;html=1;shape=mxgraph.flowchart.decision;whiteSpace=wrap;" vertex="1" parent="B3cgf-nSYvkNTnSfMjAs-1">
          <mxGeometry x="360" y="920" width="160" height="100" as="geometry" />
        </mxCell>
        <mxCell id="B3cgf-nSYvkNTnSfMjAs-29" value="No" style="text;html=1;align=center;verticalAlign=middle;resizable=0;points=[];autosize=1;strokeColor=none;" vertex="1" parent="B3cgf-nSYvkNTnSfMjAs-1">
          <mxGeometry x="585" y="960" width="30" height="20" as="geometry" />
        </mxCell>
        <mxCell id="B3cgf-nSYvkNTnSfMjAs-31" value="" style="endArrow=classic;html=1;entryX=-0.1;entryY=0.6;entryDx=0;entryDy=0;entryPerimeter=0;" edge="1" parent="B3cgf-nSYvkNTnSfMjAs-1" target="B3cgf-nSYvkNTnSfMjAs-29">
          <mxGeometry width="50" height="50" relative="1" as="geometry">
            <mxPoint x="520" y="970" as="sourcePoint" />
            <mxPoint x="570" y="920" as="targetPoint" />
          </mxGeometry>
        </mxCell>
        <mxCell id="B3cgf-nSYvkNTnSfMjAs-35" value="" style="endArrow=none;html=1;" edge="1" parent="B3cgf-nSYvkNTnSfMjAs-1">
          <mxGeometry width="50" height="50" relative="1" as="geometry">
            <mxPoint x="610" y="970" as="sourcePoint" />
            <mxPoint x="640" y="970" as="targetPoint" />
          </mxGeometry>
        </mxCell>
        <mxCell id="B3cgf-nSYvkNTnSfMjAs-36" value="" style="endArrow=none;html=1;" edge="1" parent="B3cgf-nSYvkNTnSfMjAs-1">
          <mxGeometry width="50" height="50" relative="1" as="geometry">
            <mxPoint x="640" y="970" as="sourcePoint" />
            <mxPoint x="640" y="650" as="targetPoint" />
          </mxGeometry>
        </mxCell>
        <mxCell id="B3cgf-nSYvkNTnSfMjAs-37" value="" style="endArrow=classic;html=1;entryX=1;entryY=0.5;entryDx=0;entryDy=0;" edge="1" parent="B3cgf-nSYvkNTnSfMjAs-1" target="B3cgf-nSYvkNTnSfMjAs-23">
          <mxGeometry width="50" height="50" relative="1" as="geometry">
            <mxPoint x="640" y="650" as="sourcePoint" />
            <mxPoint x="690" y="600" as="targetPoint" />
          </mxGeometry>
        </mxCell>
        <mxCell id="B3cgf-nSYvkNTnSfMjAs-38" value="Yes" style="text;html=1;align=center;verticalAlign=middle;resizable=0;points=[];autosize=1;strokeColor=none;" vertex="1" parent="B3cgf-nSYvkNTnSfMjAs-1">
          <mxGeometry x="420" y="1050" width="40" height="20" as="geometry" />
        </mxCell>
        <mxCell id="B3cgf-nSYvkNTnSfMjAs-39" value="" style="endArrow=none;html=1;exitX=0.5;exitY=0.05;exitDx=0;exitDy=0;exitPerimeter=0;" edge="1" parent="B3cgf-nSYvkNTnSfMjAs-1" source="B3cgf-nSYvkNTnSfMjAs-11">
          <mxGeometry width="50" height="50" relative="1" as="geometry">
            <mxPoint x="390" y="540" as="sourcePoint" />
            <mxPoint x="440" y="490" as="targetPoint" />
          </mxGeometry>
        </mxCell>
        <mxCell id="B3cgf-nSYvkNTnSfMjAs-40" value="" style="endArrow=none;html=1;" edge="1" parent="B3cgf-nSYvkNTnSfMjAs-1">
          <mxGeometry width="50" height="50" relative="1" as="geometry">
            <mxPoint x="281" y="440" as="sourcePoint" />
            <mxPoint x="360" y="440" as="targetPoint" />
          </mxGeometry>
        </mxCell>
        <mxCell id="B3cgf-nSYvkNTnSfMjAs-41" value="" style="endArrow=none;html=1;" edge="1" parent="B3cgf-nSYvkNTnSfMjAs-1">
          <mxGeometry width="50" height="50" relative="1" as="geometry">
            <mxPoint x="440" y="1050" as="sourcePoint" />
            <mxPoint x="440" y="1020" as="targetPoint" />
          </mxGeometry>
        </mxCell>
        <mxCell id="B3cgf-nSYvkNTnSfMjAs-42" value="" style="endArrow=classic;html=1;" edge="1" parent="B3cgf-nSYvkNTnSfMjAs-1">
          <mxGeometry width="50" height="50" relative="1" as="geometry">
            <mxPoint x="440" y="1070" as="sourcePoint" />
            <mxPoint x="440" y="1120" as="targetPoint" />
          </mxGeometry>
        </mxCell>
        <mxCell id="B3cgf-nSYvkNTnSfMjAs-43" value="User Signed in to site" style="shape=parallelogram;html=1;strokeWidth=2;perimeter=parallelogramPerimeter;whiteSpace=wrap;rounded=1;arcSize=12;size=0.23;" vertex="1" parent="B3cgf-nSYvkNTnSfMjAs-1">
          <mxGeometry x="340" y="1120" width="190" height="100" as="geometry" />
        </mxCell>
        <mxCell id="B3cgf-nSYvkNTnSfMjAs-44" value="User wants to order" style="strokeWidth=2;html=1;shape=mxgraph.flowchart.decision;whiteSpace=wrap;" vertex="1" parent="B3cgf-nSYvkNTnSfMjAs-1">
          <mxGeometry x="360" y="1280" width="160" height="100" as="geometry" />
        </mxCell>
        <mxCell id="B3cgf-nSYvkNTnSfMjAs-45" value="Yes" style="text;html=1;align=center;verticalAlign=middle;resizable=0;points=[];autosize=1;strokeColor=none;" vertex="1" parent="B3cgf-nSYvkNTnSfMjAs-1">
          <mxGeometry x="420" y="1420" width="40" height="20" as="geometry" />
        </mxCell>
        <mxCell id="B3cgf-nSYvkNTnSfMjAs-49" value="" style="endArrow=classic;html=1;" edge="1" parent="B3cgf-nSYvkNTnSfMjAs-1">
          <mxGeometry width="50" height="50" relative="1" as="geometry">
            <mxPoint x="440" y="1220" as="sourcePoint" />
            <mxPoint x="440" y="1280" as="targetPoint" />
          </mxGeometry>
        </mxCell>
        <mxCell id="B3cgf-nSYvkNTnSfMjAs-51" value="Products and services displayed and order form displayed" style="shape=parallelogram;html=1;strokeWidth=2;perimeter=parallelogramPerimeter;whiteSpace=wrap;rounded=1;arcSize=12;size=0.23;" vertex="1" parent="B3cgf-nSYvkNTnSfMjAs-1">
          <mxGeometry x="345" y="1480" width="190" height="100" as="geometry" />
        </mxCell>
        <mxCell id="B3cgf-nSYvkNTnSfMjAs-52" value="" style="endArrow=none;html=1;exitX=0.5;exitY=0;exitDx=0;exitDy=0;exitPerimeter=0;" edge="1" parent="B3cgf-nSYvkNTnSfMjAs-1" source="B3cgf-nSYvkNTnSfMjAs-45">
          <mxGeometry width="50" height="50" relative="1" as="geometry">
            <mxPoint x="440" y="1410" as="sourcePoint" />
            <mxPoint x="440" y="1380" as="targetPoint" />
          </mxGeometry>
        </mxCell>
        <mxCell id="B3cgf-nSYvkNTnSfMjAs-54" value="" style="endArrow=classic;html=1;entryX=0.5;entryY=0;entryDx=0;entryDy=0;" edge="1" parent="B3cgf-nSYvkNTnSfMjAs-1" target="B3cgf-nSYvkNTnSfMjAs-51">
          <mxGeometry width="50" height="50" relative="1" as="geometry">
            <mxPoint x="440" y="1440" as="sourcePoint" />
            <mxPoint x="490" y="1390" as="targetPoint" />
          </mxGeometry>
        </mxCell>
        <mxCell id="B3cgf-nSYvkNTnSfMjAs-55" value="Client fills in order form" style="rounded=1;whiteSpace=wrap;html=1;absoluteArcSize=1;arcSize=14;strokeWidth=2;" vertex="1" parent="B3cgf-nSYvkNTnSfMjAs-1">
          <mxGeometry x="360" y="1660" width="160" height="100" as="geometry" />
        </mxCell>
        <mxCell id="B3cgf-nSYvkNTnSfMjAs-57" value="" style="endArrow=classic;html=1;" edge="1" parent="B3cgf-nSYvkNTnSfMjAs-1">
          <mxGeometry width="50" height="50" relative="1" as="geometry">
            <mxPoint x="440" y="1580" as="sourcePoint" />
            <mxPoint x="440" y="1659" as="targetPoint" />
          </mxGeometry>
        </mxCell>
        <mxCell id="B3cgf-nSYvkNTnSfMjAs-58" value="No" style="text;html=1;align=center;verticalAlign=middle;resizable=0;points=[];autosize=1;strokeColor=none;" vertex="1" parent="B3cgf-nSYvkNTnSfMjAs-1">
          <mxGeometry x="315" y="1320" width="30" height="20" as="geometry" />
        </mxCell>
        <mxCell id="B3cgf-nSYvkNTnSfMjAs-60" value="" style="endArrow=classic;html=1;" edge="1" parent="B3cgf-nSYvkNTnSfMjAs-1">
          <mxGeometry width="50" height="50" relative="1" as="geometry">
            <mxPoint x="440" y="1760" as="sourcePoint" />
            <mxPoint x="440" y="1840" as="targetPoint" />
          </mxGeometry>
        </mxCell>
        <mxCell id="B3cgf-nSYvkNTnSfMjAs-61" value="Store employee verifies order and processes it and tracking number sent to customer" style="shape=parallelogram;html=1;strokeWidth=2;perimeter=parallelogramPerimeter;whiteSpace=wrap;rounded=1;arcSize=12;size=0.23;" vertex="1" parent="B3cgf-nSYvkNTnSfMjAs-1">
          <mxGeometry x="345" y="1840" width="190" height="100" as="geometry" />
        </mxCell>
        <mxCell id="B3cgf-nSYvkNTnSfMjAs-62" value="Client Sign out (Optional)" style="rounded=1;whiteSpace=wrap;html=1;absoluteArcSize=1;arcSize=14;strokeWidth=2;" vertex="1" parent="B3cgf-nSYvkNTnSfMjAs-1">
          <mxGeometry x="360" y="2000" width="160" height="100" as="geometry" />
        </mxCell>
        <mxCell id="B3cgf-nSYvkNTnSfMjAs-63" value="" style="endArrow=classic;html=1;" edge="1" parent="B3cgf-nSYvkNTnSfMjAs-1">
          <mxGeometry width="50" height="50" relative="1" as="geometry">
            <mxPoint x="440" y="1940" as="sourcePoint" />
            <mxPoint x="440" y="2000" as="targetPoint" />
          </mxGeometry>
        </mxCell>
        <mxCell id="B3cgf-nSYvkNTnSfMjAs-64" value="End" style="ellipse;whiteSpace=wrap;html=1;" vertex="1" parent="B3cgf-nSYvkNTnSfMjAs-1">
          <mxGeometry x="380" y="2160" width="120" height="80" as="geometry" />
        </mxCell>
        <mxCell id="B3cgf-nSYvkNTnSfMjAs-65" value="" style="endArrow=classic;html=1;entryX=0.5;entryY=0;entryDx=0;entryDy=0;" edge="1" parent="B3cgf-nSYvkNTnSfMjAs-1" target="B3cgf-nSYvkNTnSfMjAs-64">
          <mxGeometry width="50" height="50" relative="1" as="geometry">
            <mxPoint x="440" y="2100" as="sourcePoint" />
            <mxPoint x="490" y="2050" as="targetPoint" />
          </mxGeometry>
        </mxCell>
        <mxCell id="B3cgf-nSYvkNTnSfMjAs-66" value="" style="endArrow=none;html=1;" edge="1" parent="B3cgf-nSYvkNTnSfMjAs-1">
          <mxGeometry width="50" height="50" relative="1" as="geometry">
            <mxPoint x="200" y="1330" as="sourcePoint" />
            <mxPoint x="320" y="1330" as="targetPoint" />
          </mxGeometry>
        </mxCell>
        <mxCell id="B3cgf-nSYvkNTnSfMjAs-67" value="" style="endArrow=none;html=1;" edge="1" parent="B3cgf-nSYvkNTnSfMjAs-1">
          <mxGeometry width="50" height="50" relative="1" as="geometry">
            <mxPoint x="200" y="2060" as="sourcePoint" />
            <mxPoint x="200" y="1330" as="targetPoint" />
          </mxGeometry>
        </mxCell>
        <mxCell id="B3cgf-nSYvkNTnSfMjAs-69" value="" style="endArrow=classic;html=1;entryX=-0.006;entryY=0.58;entryDx=0;entryDy=0;entryPerimeter=0;" edge="1" parent="B3cgf-nSYvkNTnSfMjAs-1" target="B3cgf-nSYvkNTnSfMjAs-62">
          <mxGeometry width="50" height="50" relative="1" as="geometry">
            <mxPoint x="200" y="2060" as="sourcePoint" />
            <mxPoint x="250" y="2010" as="targetPoint" />
          </mxGeometry>
        </mxCell>
        <mxCell id="B3cgf-nSYvkNTnSfMjAs-70" value="" style="endArrow=none;html=1;" edge="1" parent="B3cgf-nSYvkNTnSfMjAs-1">
          <mxGeometry width="50" height="50" relative="1" as="geometry">
            <mxPoint x="340" y="1330" as="sourcePoint" />
            <mxPoint x="360" y="1330" as="targetPoint" />
          </mxGeometry>
        </mxCell>
      </root>
    </mxGraphModel>
  </diagram>
</mxfile>
